<svg id="Layer_1" enable-background="new 0 0 64 64" viewBox="0 0 64 64" xmlns="http://www.w3.org/2000/svg"><g><g><g><circle cx="33" cy="33" fill="#a0a3f2" r="17.9"/></g><g opacity=".25"><path d="m31.3 15.3c4 .4 7.9 2.1 10.9 5.1 7 7 7 18.3 0 25.3-3 3-6.9 4.8-10.9 5.1 5.1.5 10.4-1.2 14.4-5.1 7-7 7-18.3 0-25.3-4-3.9-9.3-5.6-14.4-5.1z" fill="#353535"/></g><g><circle cx="33" cy="33" fill="#fff" r="13.6"/></g><g opacity=".25"><path d="m29.9 19.8c2.4.6 4.7 1.8 6.5 3.6 5.3 5.3 5.3 13.9 0 19.3-1.9 1.9-4.1 3.1-6.5 3.6 4.4 1 9.3-.2 12.8-3.6 5.3-5.3 5.3-13.9 0-19.3-3.5-3.5-8.3-4.6-12.8-3.6z" fill="#353535"/></g><g><path d="m45.1 44.8h5v5.7h-5z" fill="#ce544f" transform="matrix(.707 -.707 .707 .707 -19.732 47.637)"/></g><g><path d="m52.3 47-5.3 5.3 10.6 10.6c1.5 1.5 3.9 1.5 5.3 0 1.5-1.5 1.5-3.9 0-5.3z" fill="#fb695a"/></g><g opacity=".25"><path d="m50.4 48.9 9.2 9.2c1.5 1.5 1.5 3.9 0 5.3-.1.1-.3.3-.5.4 1.3.4 2.8.1 3.8-.9 1.5-1.5 1.5-3.9 0-5.3l-10.6-10.6z" fill="#353535"/></g><g><g><path d="m54.1 45.2-8.9 8.9" fill="#fb695a"/></g><g><path d="m45.2 55.1c-.3 0-.5-.1-.7-.3-.4-.4-.4-1 0-1.4l8.9-8.9c.4-.4 1-.4 1.4 0s.4 1 0 1.4l-8.9 8.9c-.2.2-.4.3-.7.3z" fill="#fb695a"/></g></g><g><path d="m57.9 60.3c-.1 0-.3 0-.4-.1l-2.4-2.4c-.2-.2-.2-.5 0-.7s.5-.2.7 0l2.4 2.4c.2.2.2.5 0 .7 0 0-.2.1-.3.1z" fill="#fffdfd"/></g><g><g><circle cx="33" cy="27.5" fill="#f8c6a5" r="3.4"/></g><g><path d="m39.5 39.9h-12.9v-1.1c0-3.5 2.9-6.4 6.4-6.4 3.5 0 6.4 2.9 6.4 6.4v1.1z" fill="#fb695a"/></g><g><g opacity=".25"><path d="m33.5 27.5c0 1.4-.8 2.5-1.9 3.1.4.2.9.3 1.5.3 1.9 0 3.4-1.5 3.4-3.4s-1.5-3.4-3.4-3.4c-.5 0-1 .1-1.5.3 1.1.6 1.9 1.7 1.9 3.1z" fill="#353535"/></g><g opacity=".25"><path d="m33 32.5c-.5 0-1 .1-1.5.2 2.8.7 5 3.2 5 6.2v1.1h2.9v-1.1c.1-3.6-2.8-6.4-6.4-6.4z" fill="#353535"/></g></g><g><path d="m29.6 38.2c-.3 0-.5-.2-.5-.5v-.9c0-.3.2-.5.5-.5s.5.2.5.5v.9c0 .2-.2.5-.5.5z" fill="#fffdfd"/></g></g></g><g><g><circle cx="10.3" cy="10.3" fill="#dee3f9" r="10.3"/></g><g><circle cx="10.3" cy="10.3" fill="#dee3f9" r="10.3"/></g></g><g><g><circle cx="53.7" cy="10.3" fill="#dee3f9" r="10.3"/></g><g><circle cx="53.7" cy="10.3" fill="#dee3f9" r="10.3"/></g></g><g><circle cx="7.6" cy="29" fill="#fab534" r="3"/></g><g><path d="m60.3 37.7c0 1.7-1.3 3-3 3s-3-1.3-3-3 1.3-3 3-3 3 1.4 3 3z" fill="#5fc255"/></g><g><path d="m15.4 53.7c0 2.6-2.1 4.8-4.8 4.8-2.6 0-4.8-2.1-4.8-4.8 0-2.6 2.1-4.8 4.8-4.8 2.6.1 4.8 2.2 4.8 4.8z" fill="#a0a3f2"/></g><g><g><circle cx="53.7" cy="6.8" fill="#f8c6a5" r="2.7"/></g><g><path d="m48.6 16.6h10.1v-.8c0-2.8-2.3-5-5-5-2.8 0-5 2.3-5 5v.8z" fill="#fab534"/></g><g><g opacity=".25"><path d="m54.1 6.8c0 1.1-.6 2-1.5 2.4.3.2.7.3 1.1.3 1.5 0 2.7-1.2 2.7-2.7s-1.2-2.7-2.7-2.7c-.4 0-.8.1-1.1.3.8.4 1.5 1.3 1.5 2.4z" fill="#353535"/></g><g opacity=".25"><path d="m53.7 10.7c-.4 0-.8.1-1.1.1 2.2.5 3.9 2.5 3.9 4.9v.8h2.3v-.8c-.1-2.8-2.4-5-5.1-5z" fill="#353535"/></g></g><g><path d="m51 15.3c-.3 0-.5-.2-.5-.5v-.7c0-.3.2-.5.5-.5s.5.2.5.5v.7c0 .3-.2.5-.5.5z" fill="#fffdfd"/></g></g><g><g><circle cx="10.3" cy="6.8" fill="#f8c6a5" r="2.7"/></g><g><path d="m5.3 16.6h10.1v-.8c0-2.8-2.3-5-5-5-2.8 0-5 2.3-5 5v.8z" fill="#5fc255"/></g><g><g opacity=".25"><path d="m10.7 6.8c0 1.1-.6 2-1.5 2.4.3.2.7.3 1.1.3 1.5 0 2.7-1.2 2.7-2.7s-1.2-2.7-2.7-2.7c-.4 0-.8.1-1.1.3.9.4 1.5 1.3 1.5 2.4z" fill="#353535"/></g><g opacity=".25"><path d="m10.3 10.7c-.4 0-.8.1-1.1.1 2.2.5 3.9 2.5 3.9 4.9v.8h2.3v-.8c0-2.8-2.3-5-5.1-5z" fill="#353535"/></g></g><g><path d="m7.7 15.3c-.3 0-.5-.2-.5-.5v-.7c0-.3.2-.5.5-.5s.5.2.5.5v.7c0 .3-.3.5-.5.5z" fill="#fffdfd"/></g></g></g></svg>